<svg version="1.0" width="191" viewBox="0 0 2900 600">
       <g
          transform="matrix(0.1,0,0,-0.1,-667.66165,651.52702)"
          fill="currentColor"
          stroke="none"
          id="g22">
         <path
            d="m 26485,5391 c -11,-5 -29,-19 -40,-31 -19,-21 -20,-38 -23,-531 l -3,-509 h -229 c -189,0 -237,-3 -270,-16 -57,-23 -74,-59 -74,-159 0,-90 10,-117 57,-145 29,-18 52,-20 275,-20 h 242 v -917 c 0,-977 2,-1014 50,-1198 37,-140 92,-239 184,-331 90,-90 158,-130 283,-166 73,-22 96,-23 370,-23 h 293 l 27,28 c 27,26 28,31 28,132 0,101 -1,106 -28,132 l -27,28 -243,6 c -266,7 -307,15 -390,70 -80,52 -136,153 -173,309 -16,69 -18,155 -21,1003 l -4,927 h 374 c 373,0 374,0 408,23 45,30 62,82 56,168 -4,69 -18,99 -59,127 -20,15 -68,17 -400,20 l -378,3 v 495 c 0,543 1,538 -60,569 -32,16 -189,20 -225,6 z"
            id="path2" />
         <path
            d="m 28260,5393 c -62,-23 -85,-98 -78,-264 7,-182 25,-200 206,-207 155,-6 198,2 239,43 l 33,33 v 156 c 0,239 -7,246 -237,245 -81,0 -155,-3 -163,-6 z"
            id="path4" />
         <path
            d="m 7815,5321 c -43,-26 -61,-50 -74,-96 -13,-49 -15,-931 -2,-989 12,-48 64,-103 111,-116 21,-6 230,-10 512,-10 h 478 l 2,-1337 c 3,-1320 3,-1338 23,-1365 11,-15 37,-36 57,-48 36,-20 44,-20 655,-18 l 618,3 31,22 c 68,49 64,-51 64,1417 v 1325 l 498,3 c 477,3 498,4 530,23 18,11 43,36 55,55 22,35 22,41 25,518 2,305 -1,496 -7,520 -6,21 -27,53 -46,72 l -36,35 -1732,3 c -1673,2 -1733,1 -1762,-17 z"
            id="path6" />
         <path
            d="m 11879,5317 c -19,-12 -42,-38 -51,-57 -17,-33 -18,-145 -18,-1918 0,-2087 -5,-1926 64,-1975 l 31,-22 h 1547 c 1546,0 1547,0 1574,21 15,11 37,33 48,48 20,27 21,41 24,468 3,430 2,441 -18,484 -12,24 -36,52 -54,64 -33,20 -45,20 -940,20 h -906 v 185 185 l 829,2 830,3 36,35 c 19,19 40,51 46,72 6,24 9,185 7,431 -3,372 -4,394 -23,427 -12,21 -39,44 -65,58 l -44,22 h -808 -808 v 180 180 h 876 c 969,0 919,-3 967,64 22,31 22,34 25,481 3,502 3,495 -67,542 l -34,23 h -1517 -1517 z"
            id="path8" />
         <path
            d="m 15714,5330 c -37,-15 -82,-77 -89,-122 -3,-24 -5,-878 -3,-1898 3,-1834 3,-1855 23,-1889 11,-19 33,-43 48,-55 l 28,-21 h 1012 c 1003,0 1013,0 1155,23 349,55 637,163 853,318 101,73 260,236 329,339 147,218 230,473 261,800 17,171 17,867 0,1040 -22,237 -72,419 -164,600 -209,409 -628,703 -1170,820 -247,53 -294,55 -1317,54 -520,0 -954,-4 -966,-9 z m 1807,-1114 c 180,-39 303,-150 344,-312 32,-128 44,-564 24,-891 -15,-251 -37,-328 -122,-420 -52,-57 -98,-86 -179,-114 -58,-20 -83,-22 -298,-23 l -235,-1 -3,888 -2,887 h 202 c 136,0 225,-5 269,-14 z"
            id="path10" />
         <path
            d="m 20896,4360 c -159,-25 -327,-88 -452,-168 -331,-214 -534,-590 -584,-1081 -13,-133 -13,-444 1,-569 43,-397 180,-711 413,-943 212,-213 495,-319 846,-319 346,1 661,109 905,311 148,123 253,273 263,378 4,43 1,52 -26,82 l -30,34 h -122 -122 l -42,-49 c -157,-185 -252,-263 -408,-335 -124,-58 -192,-72 -369,-78 -123,-4 -173,-2 -240,12 -385,78 -684,474 -716,948 l -6,97 h 1032 c 939,0 1036,1 1068,16 63,31 68,48 67,234 -6,695 -299,1195 -803,1372 -134,47 -219,59 -421,63 -107,2 -222,0 -254,-5 z m 452,-350 c 345,-83 593,-371 657,-765 8,-49 15,-123 15,-162 v -73 h -905 -905 v 59 c 0,279 120,578 298,742 137,127 283,195 472,219 94,12 273,2 368,-20 z"
            id="path12" />
         <path
            d="m 23995,4355 c -397,-64 -680,-263 -848,-595 -52,-103 -104,-269 -127,-406 -45,-264 -45,-785 0,-1048 22,-131 81,-318 130,-417 159,-318 425,-509 815,-586 127,-25 462,-25 590,1 276,55 482,160 640,327 152,161 244,371 245,554 0,100 -44,135 -170,135 -117,0 -115,2 -219,-224 -119,-256 -260,-379 -515,-449 -71,-19 -106,-22 -276,-21 -223,0 -290,13 -434,84 -263,128 -405,339 -462,685 -15,90 -19,167 -19,430 0,330 6,397 46,563 56,230 165,389 347,506 155,100 303,140 527,139 188,0 298,-23 435,-89 168,-82 301,-240 385,-462 40,-103 76,-141 142,-149 79,-9 139,4 178,39 33,29 35,33 35,97 0,132 -68,321 -164,455 -63,88 -189,205 -287,265 -105,64 -254,123 -384,151 -132,29 -473,37 -610,15 z"
            id="path14" />
         <path
            d="m 33354,4355 c -584,-103 -956,-575 -1014,-1290 -42,-519 46,-954 257,-1274 78,-118 244,-282 351,-345 100,-59 235,-111 362,-139 139,-31 450,-30 597,1 360,77 665,275 821,533 12,19 28,61 36,93 30,112 -17,156 -167,156 -119,0 -138,-9 -207,-99 -120,-158 -319,-292 -509,-343 -105,-28 -366,-36 -468,-15 -159,34 -271,96 -398,222 -137,136 -226,293 -280,496 -24,92 -45,231 -45,296 v 33 h 1030 c 1135,0 1080,-3 1120,62 17,28 20,50 20,154 0,511 -147,913 -432,1179 -142,132 -308,218 -517,267 -115,26 -437,34 -557,13 z m 362,-325 c 115,-14 187,-35 279,-79 301,-144 480,-442 510,-848 l 7,-93 h -911 -911 v 38 c 0,70 20,217 41,301 117,473 506,741 985,681 z"
            id="path16" />
         <path
            d="m 28325,4307 c -16,-8 -39,-24 -50,-37 -20,-22 -20,-38 -23,-1434 -2,-1396 -2,-1411 18,-1444 11,-18 32,-37 46,-42 41,-16 191,-12 224,5 64,33 60,-64 60,1472 0,1090 -3,1403 -13,1422 -24,48 -60,64 -149,68 -56,2 -93,-1 -113,-10 z"
            id="path18" />
         <path
            d="m 29353,4313 c -12,-2 -36,-20 -54,-40 -28,-33 -31,-41 -26,-87 6,-67 1055,-2714 1096,-2766 15,-19 47,-45 72,-58 40,-21 54,-23 170,-20 119,3 128,5 166,31 22,15 49,44 60,65 12,20 261,640 553,1377 377,951 532,1352 532,1380 2,83 -55,125 -169,125 -93,0 -138,-14 -166,-53 -14,-18 -237,-576 -497,-1242 -260,-665 -478,-1221 -485,-1233 -10,-21 -62,107 -496,1214 -266,681 -493,1249 -503,1262 -29,37 -77,52 -158,51 -40,-1 -83,-4 -95,-6 z"
            id="path20" />
       </g>
    </svg>